PathFileType	4	(X/Y/Z)	./resultDataOpenSim/trcMotMarkerGrf/sub06/qtm-14-06.trc
DataRate	CameraRate	NumFrames	NumMarkers	Units	OrigDataRate	OrigDataStartFrame	OrigNumFrames
250.000000	250.000000	12	24	m	250.000000	133	529
Frame#	Time	L.Toe.Tip			R.Toe.Tip			L.Ankle.Lat			R.Ankle.Lat			L.Ankle.Med			R.Ankle.Med			L.Heel			R.Heel			L.Knee.Lat			R.Knee.Lat			L.Knee.Med			R.Knee.Med			L.Thigh.Upper			R.Thigh.Upper			L.ASIS			R.ASIS			V.Sacral			L.Acromium			R.Acromium			C7			L.Elbow			R.Elbow			L.Wrist.Lat			R.Wrist.Lat
		X1	Y1	Z1	X2	Y2	Z2	X3	Y3	Z3	X4	Y4	Z4	X5	Y5	Z5	X6	Y6	Z6	X7	Y7	Z7	X8	Y8	Z8	X9	Y9	Z9	X10	Y10	Z10	X11	Y11	Z11	X12	Y12	Z12	X13	Y13	Z13	X14	Y14	Z14	X15	Y15	Z15	X16	Y16	Z16	X17	Y17	Z17	X18	Y18	Z18	X19	Y19	Z19	X20	Y20	Z20	X21	Y21	Z21	X22	Y22	Z22	X23	Y23	Z23	X24	Y24	Z24

133	0.528	-0.22086673	0.097298686	-0.10396059	-0.8005341	0.034685211	0.064007116	-0.34899496	0.091898957	-0.12167527	-0.93234627	0.073958377	0.079102145	-0.34792735	0.10887306	-0.036642218	-0.90497819	0.090607667	-0.0062789753	-0.40467976	0.039517356	-0.06942161	-0.98634721	0.058975095	0.014125301	-0.42324142	0.45650097	-0.12466065	-0.76816992	0.42827634	0.11694458	-0.43854458	0.44708707	-0.0012868019	-0.79428607	0.43017975	-0.01439885	-0.61708192	0.79828994	-0.1673914	-0.68030597	0.78121194	0.17813444	-0.55754225	0.84049284	-0.11153652	-0.57157027	0.82977357	0.13613535	-0.74626025	0.91541441	0.0092998751	-0.6275958	1.320695	-0.17460211	-0.59601351	1.3130149	0.18455582	-0.68932882	1.3529916	0.010313167	-0.75137756	1.0302265	-0.2286416	-0.61774853	1.0067202	0.30147942	-0.64427224	0.81244048	-0.27266683	-0.39495068	0.89799205	0.27141717
134	0.532	-0.204513	0.10108299	-0.10297904	-0.80055741	0.034584784	0.064034562	-0.3324918	0.093294216	-0.12165175	-0.93158781	0.074874924	0.079176516	-0.33255737	0.11006998	-0.036834772	-0.90438541	0.09120381	-0.0061910807	-0.38723056	0.039427176	-0.070824557	-0.98601551	0.060262029	0.01418847	-0.41583337	0.45513251	-0.12390905	-0.76445113	0.4277361	0.11695379	-0.43146365	0.44518457	-0.00037748796	-0.79021911	0.42972131	-0.014514724	-0.60974564	0.79642982	-0.16744749	-0.67639171	0.78029304	0.17792498	-0.5504042	0.83846493	-0.11162409	-0.56524922	0.82809406	0.13624145	-0.73943818	0.91385401	0.0087825518	-0.62129476	1.3189487	-0.17481502	-0.58931447	1.311403	0.18429384	-0.68283412	1.3513588	0.010120386	-0.74560506	1.028759	-0.22832487	-0.6094913	1.0052209	0.30186345	-0.64004706	0.81052778	-0.27320989	-0.38606894	0.89825942	0.27033001
135	0.536	-0.18885939	0.10494137	-0.10198784	-0.80057614	0.034490661	0.064066779	-0.31660566	0.094754137	-0.12152279	-0.93100936	0.075803043	0.079282875	-0.31784119	0.11124677	-0.036968821	-0.9037775	0.091846282	-0.0060757881	-0.37059458	0.039534717	-0.071830899	-0.98566419	0.061625855	0.014330879	-0.40833319	0.45381603	-0.12316541	-0.76062353	0.42717743	0.11697473	-0.42438218	0.44332691	0.00051607731	-0.78603328	0.4292562	-0.014622656	-0.60238707	0.79457918	-0.16750233	-0.67238473	0.77935704	0.17767622	-0.54322525	0.83645077	-0.11171155	-0.55887016	0.82641697	0.1363398	-0.73262536	0.91230831	0.0082573655	-0.61497426	1.3172137	-0.17504526	-0.58263243	1.3097988	0.18401983	-0.67647877	1.3497551	0.0099360759	-0.73970827	1.027307	-0.2280226	-0.60124981	1.0037319	0.30220233	-0.63594118	0.80853054	-0.27376913	-0.37727554	0.89846946	0.26924347
136	0.54	-0.1738985	0.10881573	-0.10094881	-0.80056392	0.034429556	0.064101101	-0.30140817	0.096220564	-0.12129791	-0.93065003	0.076741976	0.079425375	-0.30370662	0.11238626	-0.036932004	-0.90312314	0.092540885	-0.005940791	-0.35473298	0.039751407	-0.072399728	-0.98529049	0.06307114	0.014534888	-0.40072671	0.45255719	-0.12245099	-0.75667665	0.42658668	0.11702171	-0.4173046	0.44153585	0.0013937354	-0.78171723	0.4287687	-0.014715292	-0.5949846	0.79273571	-0.16756352	-0.66768698	0.77825155	0.17738624	-0.53597677	0.8344604	-0.11179245	-0.55245833	0.8247539	0.13643186	-0.72577739	0.91076714	0.0077175573	-0.60862941	1.3154945	-0.17529293	-0.57596561	1.3082047	0.18373479	-0.67013151	1.3481589	0.0097331107	-0.73367526	1.0258435	-0.22771096	-0.59302495	1.002252	0.30249923	-0.6317782	0.80644575	-0.27427109	-0.36858124	0.89863526	0.26816605
137	0.544	-0.15960982	0.1126184	-0.099838817	-0.80051976	0.03439973	0.064138905	-0.28687424	0.097651529	-0.12097684	-0.93033558	0.077725082	0.079612976	-0.29009216	0.11347541	-0.036672018	-0.9024143	0.093291017	-0.0057656411	-0.33949968	0.039974806	-0.072643672	-0.98488978	0.064609977	0.014782025	-0.39302389	0.45135688	-0.12177676	-0.75260612	0.42597009	0.11709243	-0.4102178	0.43983312	0.0022571974	-0.77726391	0.42824884	-0.014786382	-0.58752706	0.79090153	-0.16762398	-0.662428	0.77702461	0.17708099	-0.52861012	0.83249467	-0.11186037	-0.54602619	0.8231196	0.13650321	-0.71888006	0.90922957	0.0072410969	-0.60225589	1.3137907	-0.17556067	-0.56931325	1.3066254	0.18344411	-0.66371373	1.3465563	0.0094962958	-0.72753113	1.02436	-0.22737813	-0.58482951	1.0007792	0.30275821	-0.62740713	0.80436121	-0.27470671	-0.35996645	0.89875909	0.26709658
138	0.548	-0.14597387	0.11622673	-0.098665017	-0.80045573	0.034386108	0.064182411	-0.272964	0.09900588	-0.12055969	-0.92988238	0.078785693	0.079855761	-0.27697178	0.11448442	-0.036232679	-0.90166051	0.09409948	-0.0055389196	-0.32479513	0.040146706	-0.072677988	-0.9844522	0.066262346	0.015071179	-0.38525452	0.45022746	-0.12114535	-0.74841982	0.42534234	0.11717256	-0.40309813	0.43823932	0.0031018403	-0.77266587	0.42769376	-0.014837684	-0.580013	0.78908277	-0.16767681	-0.65708914	0.77582488	0.17678061	-0.52109884	0.83055744	-0.11190095	-0.53956914	0.82152354	0.13655027	-0.71199786	0.90769668	0.0070073076	-0.59585	1.3120996	-0.17585278	-0.56267717	1.3050655	0.18315066	-0.65721773	1.3449477	0.0092245427	-0.72130059	1.0228647	-0.2270361	-0.57668539	0.99931531	0.30297386	-0.62275341	0.80235503	-0.27508724	-0.35137655	0.89882663	0.26601611
139	0.552	-0.13297695	0.11950676	-0.097471772	-0.80038149	0.03437832	0.064231585	-0.2596701	0.10023535	-0.1200529	-0.92925613	0.079927603	0.080154268	-0.26434216	0.11538015	-0.03568975	-0.90087362	0.094973348	-0.005270837	-0.31067193	0.040263916	-0.072561488	-0.98396475	0.068041134	0.01541059	-0.37745717	0.4491879	-0.12055869	-0.74411743	0.4247099	0.11725807	-0.39592728	0.43677346	0.0039128458	-0.76791443	0.42709939	-0.014871785	-0.5724412	0.78727904	-0.16772594	-0.6517683	0.77467887	0.17647142	-0.51346297	0.82866353	-0.11187852	-0.53307435	0.81996357	0.13659481	-0.70525407	0.90617642	0.007170876	-0.589406	1.3104215	-0.17617204	-0.55605199	1.303528	0.18285187	-0.65066891	1.3433507	0.008919642	-0.71499829	1.021369	-0.22670481	-0.56861303	0.99786884	0.30313787	-0.61788543	0.8004217	-0.27543389	-0.34279009	0.89882421	0.26491251
140	0.556	-0.12060789	0.12235054	-0.096326483	-0.80030029	0.034372786	0.064285032	-0.24700013	0.10129168	-0.11946746	-0.92850678	0.081144198	0.08049804	-0.25221363	0.11614373	-0.035091782	-0.90005406	0.095923453	-0.004968719	-0.29725607	0.040341061	-0.072304258	-0.98341766	0.069945852	0.015804588	-0.36965138	0.44824747	-0.12001535	-0.73968861	0.42406626	0.11735567	-0.38869504	0.43545062	0.0046721114	-0.76300087	0.42646026	-0.014886118	-0.56480497	0.78549089	-0.16777409	-0.64595809	0.77343188	0.17614519	-0.5057259	0.82682885	-0.11175463	-0.52653078	0.81843279	0.13666563	-0.69872596	0.90470097	0.0075889122	-0.58291077	1.3087618	-0.17651762	-0.54942391	1.3020153	0.18254422	-0.64410243	1.3418014	0.0085736194	-0.70862835	1.0198785	-0.22639559	-0.56061772	0.99645087	0.30324666	-0.61294927	0.7985157	-0.27578171	-0.33427153	0.89876187	0.26380833
141	0.56	-0.10885468	0.12468892	-0.095283423	-0.80021053	0.034368084	0.064342697	-0.23496134	0.10213166	-0.118817	-0.92762781	0.082462256	0.080880844	-0.24060443	0.11676785	-0.034456225	-0.89918724	0.096956924	-0.0046238498	-0.2846056	0.040368898	-0.071898263	-0.98281132	0.071973002	0.016259171	-0.36177729	0.44740937	-0.11949186	-0.73513808	0.42339838	0.11746443	-0.38138231	0.434279	0.0053697942	-0.75791988	0.42577558	-0.01487767	-0.55709353	0.78373362	-0.16780908	-0.63893221	0.77187657	0.17585124	-0.49790248	0.82505868	-0.1115353	-0.51993035	0.81693077	0.13678083	-0.69233881	0.90331304	0.007757541	-0.57634647	1.3071256	-0.17688596	-0.54278226	1.3005305	0.1822265	-0.63755158	1.3403406	0.0081705717	-0.70218685	1.0183928	-0.22611282	-0.5526847	0.99506604	0.30329778	-0.60800141	0.79662052	-0.27614586	-0.32590444	0.89866314	0.26274157
142	0.564	-0.097706188	0.12648229	-0.094357015	-0.80010758	0.034362888	0.064405709	-0.22356087	0.10271553	-0.11811331	-0.92653159	0.083938704	0.081311832	-0.2295383	0.117232	-0.033785526	-0.89825787	0.098073905	-0.0042285194	-0.27270807	0.040309303	-0.071340078	-0.98215897	0.074119954	0.016792953	-0.35368967	0.4466776	-0.1189423	-0.73047278	0.42269916	0.11757705	-0.37395795	0.43325723	0.006003631	-0.75267217	0.42504809	-0.014844168	-0.5492982	0.78202698	-0.1678149	-0.63049517	0.76995842	0.1756709	-0.49004241	0.82334512	-0.11128316	-0.51326232	0.81546285	0.13694633	-0.68586116	0.90198998	0.0072640761	-0.56970572	1.3055152	-0.17727453	-0.53612127	1.2990726	0.18189637	-0.63102007	1.3389758	0.0077067539	-0.69566795	1.0169108	-0.22586091	-0.54479011	0.99370985	0.30328745	-0.60301789	0.79473526	-0.27651479	-0.31770067	0.89853314	0.26172583
143	0.568	-0.087157011	0.12771345	-0.093526764	-0.79998479	0.034356193	0.064474379	-0.21280348	0.10300599	-0.11735972	-0.92517594	0.08559221	0.08180305	-0.21903899	0.11748967	-0.033069624	-0.89725888	0.099273808	-0.0037870183	-0.2615466	0.040111255	-0.070636931	-0.98147354	0.076378177	0.017424573	-0.34531983	0.44603278	-0.11834816	-0.72566081	0.42197533	0.11769615	-0.36640294	0.43237133	0.00656951	-0.74726191	0.42428153	-0.014780893	-0.54142267	0.78037834	-0.16779456	-0.62134041	0.76785097	0.17557247	-0.48220467	0.82167654	-0.11106086	-0.50652044	0.81403091	0.13714787	-0.67899482	0.90059924	0.0062105467	-0.56299775	1.3039308	-0.17768531	-0.52943215	1.2976365	0.18154805	-0.62446282	1.3376615	0.0072046896	-0.68906814	1.0154356	-0.22564521	-0.53691606	0.99237581	0.30321044	-0.59806579	0.79282754	-0.27690417	-0.30960442	0.89835281	0.26074199
144	0.572	-0.077210719	0.12838487	-0.092756889	-0.79983548	0.034347856	0.064548322	-0.20268726	0.10297324	-0.1165505	-0.9236678	0.087355517	0.082350147	-0.20911509	0.11749085	-0.032283675	-0.89618026	0.10056067	-0.0033026244	-0.25112004	0.039725583	-0.069805058	-0.98073348	0.078740937	0.018141848	-0.33681828	0.44541517	-0.11775386	-0.72064998	0.42124012	0.11782913	-0.35871426	0.43159947	0.0070655574	-0.7416927	0.42348404	-0.014684696	-0.53348523	0.77878932	-0.16776777	-0.61245406	0.76581419	0.17537588	-0.47439141	0.82005194	-0.11088057	-0.49972188	0.81263192	0.13734739	-0.67154589	0.89900698	0.0049694641	-0.55623333	1.3023747	-0.17812282	-0.52270549	1.2962218	0.18117645	-0.61782288	1.3363421	0.006695527	-0.68238551	1.0139729	-0.22546577	-0.52905903	0.9910634	0.30306168	-0.59325517	0.7908678	-0.2773585	-0.30155385	0.89810369	0.25975891
